HIERARCHY
ROOT Hips
{
	OFFSET 0.000000 0.000000 0.000000 
	CHANNELS 6 Xposition Yposition Zposition Zrotation Yrotation Xrotation
	JOINT LeftUpLeg
	{
		OFFSET 1.363060 -1.794630 0.839290 
		CHANNELS 3 Zrotation Yrotation Xrotation
		JOINT LeftLeg
		{
			OFFSET 2.448110 -6.726130 0.000000 
			CHANNELS 3 Zrotation Yrotation Xrotation
			JOINT LeftFoot
			{
				OFFSET 2.562200 -7.039590 0.000000 
				CHANNELS 3 Zrotation Yrotation Xrotation
				JOINT LeftToeBase
				{
					OFFSET 0.157640 -0.433110 2.322550 
					CHANNELS 3 Zrotation Yrotation Xrotation
					End Site
					{
						OFFSET 0.000000 0.000000 0.000000 
					}
				}
			}
		}
	}
	JOINT RightUpLeg
	{
		OFFSET -1.305520 -1.794630 0.839290 
		CHANNELS 3 Zrotation Yrotation Xrotation
		JOINT RightLeg
		{
			OFFSET -2.542530 -6.985550 0.000000 
			CHANNELS 3 Zrotation Yrotation Xrotation
			JOINT RightFoot
			{
				OFFSET -2.568260 -7.056230 0.000000 
				CHANNELS 3 Zrotation Yrotation Xrotation
				JOINT RightToeBase
				{
					OFFSET -0.164730 -0.452590 2.363150 
					CHANNELS 3 Zrotation Yrotation Xrotation
					End Site
					{
						OFFSET 0.000000 0.000000 0.000000 
					}
				}
			}
		}
	}
	JOINT Spine
	{
		OFFSET 0.028270 2.035590 -0.193380 
		CHANNELS 3 Zrotation Yrotation Xrotation
		JOINT Spine1
		{
			OFFSET 0.056720 2.048850 -0.042750 
			CHANNELS 3 Zrotation Yrotation Xrotation
			JOINT Neck1
			{
				OFFSET -0.054170 1.746240 0.172020 
				CHANNELS 3 Zrotation Yrotation Xrotation
				JOINT Head
				{
					OFFSET 0.104070 1.761360 -0.123970 
					CHANNELS 3 Zrotation Yrotation Xrotation
					End Site
					{
						OFFSET 0.000000 0.000000 0.000000 
					}
				}
			}
			JOINT LeftArm
			{
				OFFSET 3.362410 1.200890 -0.311210 
				CHANNELS 3 Zrotation Yrotation Xrotation
				JOINT LeftForeArm
				{
					OFFSET 4.983000 -0.000000 -0.000000 
					CHANNELS 3 Zrotation Yrotation Xrotation
					JOINT LeftHand
					{
						OFFSET 3.483560 -0.000000 -0.000000 
						CHANNELS 3 Zrotation Yrotation Xrotation
						JOINT LeftHandIndex1
						{
							OFFSET 0.715260 -0.000000 -0.000000 
							CHANNELS 3 Zrotation Yrotation Xrotation
							End Site
							{
								OFFSET 0.000000 0.000000 0.000000 
							}
						}
					}
				}
			}
			JOINT RightArm
			{
				OFFSET -3.136600 1.374050 -0.404650 
				CHANNELS 3 Zrotation Yrotation Xrotation
				JOINT RightForeArm
				{
					OFFSET -5.241900 -0.000000 -0.000000 
					CHANNELS 3 Zrotation Yrotation Xrotation
					JOINT RightHand
					{
						OFFSET -3.444170 -0.000000 -0.000000 
						CHANNELS 3 Zrotation Yrotation Xrotation
						JOINT RightHandIndex1
						{
							OFFSET -0.622530 -0.000000 -0.000000 
							CHANNELS 3 Zrotation Yrotation Xrotation
							End Site
							{
								OFFSET 0.000000 0.000000 0.000000 
							}
						}
					}
				}
			}
		}
	}
}
MOTION
Frames: 18
Frame Time: 0.041667
-0.138807 17.272116 0.047288 -1.616885 20.334208 -1.118848 -16.483481 -20.445242 -6.606914 2.411380 8.714162 30.182556 1.807581 -10.547433 -7.031749 0.559800 -4.792300 -13.317000 25.947251 0.183805 -1.820571 -2.084146 -7.053852 26.674911 0.267925 -11.357697 -21.837275 -1.075800 6.593200 -18.515600 2.686113 1.200746 11.983670 2.633985 1.188911 -1.917812 9.671529 -14.342252 10.797863 4.970900 -6.548100 12.419400 -65.213566 -17.656081 51.528344 154.248599 -32.165105 -112.479962 -8.042262 -4.154339 -63.583576 -7.125000 0.000000 0.000000 68.628993 9.119164 35.987990 -158.417782 29.083352 -112.621229 3.349134 5.271946 -50.549449 7.125000 0.000000 0.000000 
-0.134425 17.273543 0.044740 -1.656664 20.132436 -1.204973 -16.487670 -20.347654 -6.530107 2.410035 8.718811 30.199040 1.802421 -10.375839 -7.166301 0.595400 -4.940100 -13.737700 25.958975 0.237792 -1.757112 -2.088183 -7.053558 26.680904 0.293455 -11.380446 -21.671647 -1.076400 6.594900 -18.520700 2.771288 1.203271 12.112153 2.639840 1.196551 -1.913154 9.802583 -14.411768 10.573739 5.005400 -6.549700 12.418900 -65.262898 -17.721513 51.567581 154.266201 -32.147435 -112.480158 -8.043689 -4.189251 -63.608710 -7.125000 0.000000 0.000000 68.498068 9.261988 35.961826 -158.420136 29.058374 -112.624768 3.339766 5.275398 -50.553898 7.125000 0.000000 0.000000 
-0.131164 17.272727 0.044333 -1.700548 20.028634 -1.288963 -16.477637 -20.322414 -6.448208 2.416881 8.727197 30.232329 1.808537 -10.352944 -7.249446 0.584400 -4.894700 -13.608500 25.988147 0.277805 -1.655993 -2.082768 -7.040894 26.650332 0.309682 -11.434498 -21.628150 -1.014200 6.407400 -17.971200 2.865863 1.136669 12.238752 2.674285 1.169693 -1.884776 9.889913 -14.426853 10.368734 5.026900 -6.530900 12.402900 -65.292456 -17.828044 51.497812 154.264961 -32.148691 -112.463429 -8.050780 -4.217001 -63.597610 -7.125000 0.000000 0.000000 68.350888 9.504263 36.020067 -158.432382 29.014377 -112.642691 3.338926 5.261530 -50.652487 7.125000 0.000000 0.000000 
-0.129839 17.272727 0.045861 -1.766752 20.031700 -1.352363 -16.423173 -20.343459 -6.402113 2.430612 8.736713 30.271789 1.819594 -10.525105 -7.165834 0.487000 -4.474800 -12.416400 26.057312 0.287027 -1.573808 -2.078284 -7.030868 26.628187 0.300144 -11.421490 -21.682019 -1.015200 6.410500 -17.980200 3.006932 1.006087 12.281176 2.729143 1.111632 -1.871233 10.004364 -14.427464 10.263508 5.076800 -6.511000 12.426900 -65.347495 -17.918853 51.450017 154.233466 -32.183040 -112.436600 -8.053781 -4.228109 -63.543789 -7.125000 0.000000 0.000000 68.161903 9.761491 36.111148 -158.405355 29.003846 -112.647011 3.333411 5.242361 -50.800488 7.125000 0.000000 0.000000 
-0.125762 17.271606 0.042600 -1.916953 19.854351 -1.392945 -16.280217 -20.268491 -6.447231 2.437456 8.752518 30.309460 1.818897 -10.532248 -7.131165 0.446600 -4.287600 -11.887200 26.184368 0.381372 -1.529001 -2.078496 -7.024245 26.617776 0.251952 -11.233037 -21.767877 -1.031500 6.460000 -18.125100 3.109235 0.954803 12.265500 2.675911 1.089759 -1.899255 10.142444 -14.422440 10.202387 5.136000 -6.485200 12.464300 -65.346385 -17.904050 51.448022 154.206189 -32.197540 -112.437916 -8.043361 -4.207078 -63.563019 -7.125000 0.000000 0.000000 68.065541 9.938326 36.178884 -158.361698 29.028327 -112.633432 3.325941 5.237854 -50.869212 7.125000 0.000000 0.000000 
-0.119342 17.271606 0.033122 -1.930234 19.502658 -1.320699 -16.273679 -20.139094 -6.557635 2.434098 8.766260 30.336335 1.802733 -10.263997 -7.269933 0.502800 -4.545900 -12.617800 26.151691 0.567358 -1.627434 -2.087633 -7.035424 26.642543 0.198420 -10.956040 -21.763924 -1.020600 6.426900 -18.028300 3.004233 1.013106 12.279299 2.575717 1.114550 -1.919259 10.241576 -14.462101 10.079436 5.153200 -6.475500 12.464300 -65.281037 -17.854304 51.449966 154.214733 -32.177472 -112.447598 -8.046344 -4.191799 -63.582215 -7.125000 0.000000 0.000000 68.035315 10.141842 36.125664 -158.335157 29.045886 -112.618402 3.322609 5.242587 -50.834370 7.125000 0.000000 0.000000 
-0.114552 17.272116 0.027619 -1.846554 19.280320 -1.283247 -16.385231 -20.034331 -6.573308 2.435075 8.774269 30.367267 1.791667 -10.061246 -7.410112 0.556500 -4.778700 -13.278400 26.035721 0.669140 -1.720899 -2.099907 -7.056811 26.695201 0.223573 -10.959806 -21.573863 -1.104900 6.678800 -18.767300 2.935422 0.993037 12.379929 2.595272 1.103721 -1.880389 10.326963 -14.459096 9.942980 5.172100 -6.448100 12.451100 -65.232896 -17.834716 51.412343 154.236417 -32.147979 -112.455835 -8.053858 -4.183064 -63.534147 -7.125000 0.000000 0.000000 67.883388 10.396887 36.176750 -158.344535 29.005451 -112.634587 3.319422 5.231878 -50.854717 7.125000 0.000000 0.000000 
-0.110373 17.271198 0.024969 -1.803919 19.112694 -1.307729 -16.471203 -20.002875 -6.489747 2.436004 8.771527 30.372247 1.792079 -10.026176 -7.466326 0.507200 -4.565100 -12.672200 25.957524 0.699874 -1.763589 -2.116214 -7.084148 26.773496 0.249376 -10.993815 -21.422023 -1.175900 6.882600 -19.368100 2.949467 0.948052 12.449844 2.644994 1.083327 -1.868166 10.372843 -14.434745 9.835805 5.189800 -6.426500 12.420900 -65.234895 -17.793694 51.439517 154.268224 -32.118210 -112.470373 -8.061698 -4.175666 -63.514144 -7.125000 0.000000 0.000000 67.830546 10.366587 36.272792 -158.387024 28.948975 -112.668029 3.300019 5.234680 -51.105728 7.125000 0.000000 0.000000 
-0.106398 17.270893 0.020485 -1.830933 18.879410 -1.331444 -16.459671 -19.924182 -6.475716 2.432869 8.773896 30.378683 1.780099 -9.869301 -7.527979 0.503100 -4.546900 -12.620500 25.960545 0.818470 -1.777329 -2.126297 -7.095118 26.810381 0.233178 -10.877047 -21.369866 -1.175500 6.881600 -19.365200 2.905978 0.958122 12.668036 2.637469 1.084879 -1.716802 10.491493 -14.476272 9.699681 5.226800 -6.422200 12.418900 -65.162507 -17.964458 51.484104 154.242793 -32.108060 -112.460761 -8.053464 -4.190705 -63.475318 -7.125000 0.000000 0.000000 68.002926 10.320264 36.129260 -158.381789 28.972420 -112.640371 3.285302 5.279412 -51.369659 7.125000 0.000000 0.000000 
-0.104870 17.271300 0.019160 -1.802320 18.705747 -1.373067 -16.491268 -19.831650 -6.448115 2.432113 8.774268 30.389957 1.769551 -9.730949 -7.590795 0.510100 -4.577900 -12.708500 25.934519 0.921158 -1.741427 -2.130721 -7.096983 26.824459 0.230922 -10.842881 -21.336055 -1.190300 6.923400 -19.488500 2.822784 0.959001 13.141299 2.671164 1.078994 -1.318791 10.606392 -14.567087 9.503712 5.242300 -6.428900 12.431900 -65.032342 -18.479837 51.399119 154.152486 -32.114055 -112.416804 -8.048042 -4.199824 -63.468157 -7.125000 0.000000 0.000000 68.022519 10.746044 35.914120 -158.303650 29.028035 -112.579322 3.276158 5.314863 -51.492360 7.125000 0.000000 0.000000 
-0.102933 17.268956 0.018039 -1.876666 18.518704 -1.460759 -16.417880 -19.705663 -6.393452 2.424349 8.762761 30.353681 1.769056 -9.728052 -7.567810 0.495500 -4.513000 -12.524500 26.013249 1.069379 -1.701288 -2.141904 -7.112715 26.884021 0.249672 -10.903135 -21.276847 -1.239300 7.059200 -19.890900 2.793467 0.944973 13.451191 2.637904 1.067811 -1.066777 10.695003 -14.633152 9.422202 5.258300 -6.435400 12.462400 -64.932259 -18.839621 51.324832 154.095832 -32.106374 -112.394395 -8.052825 -4.176371 -63.475632 -7.125000 0.000000 0.000000 67.940956 11.134291 35.937966 -158.265375 29.034860 -112.560692 3.276216 5.317845 -51.498053 7.125000 0.000000 0.000000 
-0.094169 17.264982 0.015083 -1.770631 18.119247 -1.484603 -16.586650 -19.481848 -6.254071 2.403564 8.735075 30.277235 1.756711 -9.543995 -7.673269 0.510600 -4.580500 -12.715900 25.831760 1.222980 -1.718274 -2.166325 -7.154577 26.998712 0.246239 -10.811104 -21.162748 -1.307200 7.242500 -20.435800 2.695645 1.004960 13.379662 2.619189 1.093535 -1.205472 10.742792 -14.597384 9.451256 5.294700 -6.426800 12.434700 -64.978451 -18.711267 51.397048 154.139741 -32.085854 -112.414932 -8.076250 -4.131844 -63.448378 -7.125000 0.000000 0.000000 68.010987 10.934008 36.017622 -158.292850 29.038373 -112.559648 3.290091 5.326266 -51.385138 7.125000 0.000000 0.000000 
-0.081531 17.264268 0.016714 -1.295904 17.719417 -1.455101 -17.193212 -19.250761 -5.948479 2.386065 8.701192 30.223289 1.732636 -9.207507 -7.924798 0.562800 -4.805100 -13.353600 25.203540 1.175625 -1.661321 -2.198155 -7.203148 27.118898 0.113354 -10.217196 -21.323550 -1.198000 6.944800 -19.551800 2.336977 1.077312 13.167229 2.708372 1.117059 -1.511517 10.667768 -14.503792 9.539734 5.278100 -6.407900 12.353300 -65.035192 -18.335123 51.531267 154.176407 -32.107546 -112.432883 -8.079820 -4.119880 -63.445874 -7.125000 0.000000 0.000000 68.223475 10.526012 36.225101 -158.336753 29.043529 -112.579799 3.304460 5.324970 -51.162861 7.125000 0.000000 0.000000 
-0.074499 17.263453 0.015389 -1.043140 17.429535 -1.455445 -17.520071 -19.090580 -5.773115 2.374447 8.678170 30.181688 1.716852 -9.029585 -8.031602 0.565900 -4.818200 -13.390800 24.849224 1.155198 -1.651071 -2.231207 -7.251900 27.253327 -0.030691 -9.624886 -21.575798 -1.045100 6.501300 -18.246100 2.163913 1.079149 13.080773 2.787627 1.113251 -1.655768 10.583499 -14.475835 9.655260 5.252300 -6.415900 12.332800 -65.022117 -18.124093 51.625475 154.167737 -32.143694 -112.428983 -8.062642 -4.150289 -63.437496 -7.125000 0.000000 0.000000 68.304037 10.364007 36.538427 -158.370039 29.021533 -112.614108 3.316696 5.304217 -50.956912 7.125000 0.000000 0.000000 
-0.071238 17.259478 0.009376 -1.150636 17.176896 -1.530094 -17.429885 -18.921211 -5.765713 2.366333 8.678308 30.171770 1.706926 -8.856094 -8.127931 0.619000 -5.035100 -14.008700 24.927032 1.304310 -1.688631 -2.254601 -7.290399 27.372725 -0.046832 -9.540690 -21.575111 -1.084400 6.618500 -18.590000 2.317342 1.041535 13.138185 2.795540 1.102665 -1.641114 10.539572 -14.438295 9.658162 5.253000 -6.417900 12.295700 -65.070436 -17.961234 51.817109 154.220109 -32.113088 -112.451791 -8.065536 -4.158439 -63.243552 -7.125000 0.000000 0.000000 68.233129 10.424916 36.716194 -158.418307 28.969212 -112.640322 3.344350 5.280983 -50.931997 7.125000 0.000000 0.000000 
-0.066346 17.254994 0.005300 -1.228089 16.946790 -1.575610 -17.385660 -18.831220 -5.778848 2.377486 8.704448 30.251005 1.698893 -8.687162 -8.261945 0.646200 -5.142300 -14.314800 24.960861 1.399354 -1.719249 -2.262451 -7.300786 27.402519 -0.035971 -9.508893 -21.444219 -1.147600 6.802100 -19.130400 2.519962 0.964284 13.184904 2.834240 1.073867 -1.601102 10.593005 -14.331676 9.536250 5.326700 -6.397800 12.178400 -65.171182 -17.772509 51.975241 154.315646 -32.051402 -112.492325 -8.081156 -4.147955 -63.000804 -7.125000 0.000000 0.000000 68.108404 10.519821 36.837160 -158.523553 28.855801 -112.696841 3.397497 5.229175 -50.897405 7.125000 0.000000 0.000000 
-0.063493 17.253975 0.001733 -1.290674 16.683763 -1.595230 -17.340097 -18.713365 -5.852200 2.398504 8.748256 30.380468 1.696780 -8.517214 -8.458768 0.714800 -5.403000 -15.061800 25.002697 1.514897 -1.710199 -2.258402 -7.288313 27.364456 -0.034250 -9.436800 -21.325914 -1.124200 6.735000 -18.932600 2.634648 0.942336 13.192195 2.847511 1.066279 -1.580015 10.744702 -14.276883 9.382274 5.453500 -6.408700 12.036600 -65.242460 -17.822687 52.084097 154.315049 -32.051305 -112.502394 -8.095699 -4.096247 -63.054772 -7.125000 0.000000 0.000000 68.037624 10.602958 37.036027 -158.574871 28.783806 -112.756635 3.432789 5.161416 -50.401604 7.125000 0.000000 0.000000 
-0.060843 17.253364 -0.001223 -1.529275 16.343852 -1.684219 -17.101214 -18.526643 -5.947192 2.418606 8.796072 30.505639 1.695699 -8.389569 -8.584102 0.738600 -5.490500 -15.312900 25.248293 1.698060 -1.645943 -2.252500 -7.268249 27.321239 -0.025677 -9.416299 -21.225237 -1.135400 6.767100 -19.027300 2.767279 0.969148 13.269508 2.767862 1.080214 -1.480926 10.931612 -14.269548 9.223386 5.588900 -6.438000 11.907900 -65.218375 -18.061866 52.127598 154.262224 -32.070080 -112.488545 -8.105328 -4.051559 -63.215341 -7.125000 0.000000 0.000000 68.027247 10.642068 37.349813 -158.607023 28.722061 -112.823880 3.429131 5.113097 -49.852622 7.125000 0.000000 0.000000 
